<svg width="18" height="18" viewBox="0 0 18 18" fill="none" xmlns="http://www.w3.org/2000/svg">
<path d="M13.5 3H12.75V2.25C12.75 2.05109 12.671 1.86032 12.5303 1.71967C12.3897 1.57902 12.1989 1.5 12 1.5C11.8011 1.5 11.6103 1.57902 11.4697 1.71967C11.329 1.86032 11.25 2.05109 11.25 2.25V3H6.75V2.25C6.75 2.05109 6.67098 1.86032 6.53033 1.71967C6.38968 1.57902 6.19891 1.5 6 1.5C5.80109 1.5 5.61032 1.57902 5.46967 1.71967C5.32902 1.86032 5.25 2.05109 5.25 2.25V3H4.5C3.90326 3 3.33097 3.23705 2.90901 3.65901C2.48705 4.08097 2.25 4.65326 2.25 5.25V14.25C2.25 14.8467 2.48705 15.419 2.90901 15.841C3.33097 16.2629 3.90326 16.5 4.5 16.5H13.5C14.0967 16.5 14.669 16.2629 15.091 15.841C15.5129 15.419 15.75 14.8467 15.75 14.25V5.25C15.75 4.65326 15.5129 4.08097 15.091 3.65901C14.669 3.23705 14.0967 3 13.5 3ZM4.5 4.5H5.25V5.25C5.25 5.44891 5.32902 5.63968 5.46967 5.78033C5.61032 5.92098 5.80109 6 6 6C6.19891 6 6.38968 5.92098 6.53033 5.78033C6.67098 5.63968 6.75 5.44891 6.75 5.25V4.5H11.25V5.25C11.25 5.44891 11.329 5.63968 11.4697 5.78033C11.6103 5.92098 11.8011 6 12 6C12.1989 6 12.3897 5.92098 12.5303 5.78033C12.671 5.63968 12.75 5.44891 12.75 5.25V4.5H13.5C13.6989 4.5 13.8897 4.57902 14.0303 4.71967C14.171 4.86032 14.25 5.05109 14.25 5.25V8.25H3.75V5.25C3.75 5.05109 3.82902 4.86032 3.96967 4.71967C4.11032 4.57902 4.30109 4.5 4.5 4.5ZM13.5 15H4.5C4.30109 15 4.11032 14.921 3.96967 14.7803C3.82902 14.6397 3.75 14.4489 3.75 14.25V9.75H14.25V14.25C14.25 14.4489 14.171 14.6397 14.0303 14.7803C13.8897 14.921 13.6989 15 13.5 15Z" fill="#1D1D1B"/>
<path d="M6 12.75C6.41421 12.75 6.75 12.4142 6.75 12C6.75 11.5858 6.41421 11.25 6 11.25C5.58579 11.25 5.25 11.5858 5.25 12C5.25 12.4142 5.58579 12.75 6 12.75Z" fill="#1D1D1B"/>
<path d="M12 11.25H9C8.80109 11.25 8.61032 11.329 8.46967 11.4697C8.32902 11.6103 8.25 11.8011 8.25 12C8.25 12.1989 8.32902 12.3897 8.46967 12.5303C8.61032 12.671 8.80109 12.75 9 12.75H12C12.1989 12.75 12.3897 12.671 12.5303 12.5303C12.671 12.3897 12.75 12.1989 12.75 12C12.75 11.8011 12.671 11.6103 12.5303 11.4697C12.3897 11.329 12.1989 11.25 12 11.25Z" fill="#1D1D1B"/>
</svg>
